<svg id="visual" viewBox="0 0 900 600" width="900" height="600" xmlns="http://www.w3.org/2000/svg" xmlns:xlink="http://www.w3.org/1999/xlink" version="1.1"><path d="M0 67L82 67L82 43L164 43L164 85L245 85L245 85L327 85L327 103L409 103L409 43L491 43L491 85L573 85L573 79L655 79L655 49L736 49L736 79L818 79L818 67L900 67L900 43L900 0L900 0L818 0L818 0L736 0L736 0L655 0L655 0L573 0L573 0L491 0L491 0L409 0L409 0L327 0L327 0L245 0L245 0L164 0L164 0L82 0L82 0L0 0Z" fill="#fa7268"></path><path d="M0 181L82 181L82 187L164 187L164 253L245 253L245 277L327 277L327 205L409 205L409 259L491 259L491 301L573 301L573 187L655 187L655 247L736 247L736 199L818 199L818 259L900 259L900 199L900 41L900 65L818 65L818 77L736 77L736 47L655 47L655 77L573 77L573 83L491 83L491 41L409 41L409 101L327 101L327 83L245 83L245 83L164 83L164 41L82 41L82 65L0 65Z" fill="#ea5e66"></path><path d="M0 289L82 289L82 307L164 307L164 307L245 307L245 325L327 325L327 283L409 283L409 307L491 307L491 421L573 421L573 271L655 271L655 355L736 355L736 313L818 313L818 379L900 379L900 259L900 197L900 257L818 257L818 197L736 197L736 245L655 245L655 185L573 185L573 299L491 299L491 257L409 257L409 203L327 203L327 275L245 275L245 251L164 251L164 185L82 185L82 179L0 179Z" fill="#d84a64"></path><path d="M0 469L82 469L82 529L164 529L164 475L245 475L245 493L327 493L327 451L409 451L409 529L491 529L491 523L573 523L573 499L655 499L655 457L736 457L736 547L818 547L818 463L900 463L900 433L900 257L900 377L818 377L818 311L736 311L736 353L655 353L655 269L573 269L573 419L491 419L491 305L409 305L409 281L327 281L327 323L245 323L245 305L164 305L164 305L82 305L82 287L0 287Z" fill="#c53762"></path><path d="M0 601L82 601L82 601L164 601L164 601L245 601L245 601L327 601L327 601L409 601L409 601L491 601L491 601L573 601L573 601L655 601L655 601L736 601L736 601L818 601L818 601L900 601L900 601L900 431L900 461L818 461L818 545L736 545L736 455L655 455L655 497L573 497L573 521L491 521L491 527L409 527L409 449L327 449L327 491L245 491L245 473L164 473L164 527L82 527L82 467L0 467Z" fill="#b0235f"></path></svg>